<svg width="199" height="101" viewBox="0 0 199 101" fill="none" xmlns="http://www.w3.org/2000/svg">
<rect width="199" height="99" fill="white"/>
<mask id="path-2-outside-1_2900_2109" maskUnits="userSpaceOnUse" x="9" y="30" width="180" height="60" fill="black">
<rect fill="white" x="9" y="30" width="180" height="60"/>
<path d="M69.888 58.128L55.552 51.408V43.92L69.888 50.576V58.128ZM33.28 50.704L47.68 44.048V51.408L33.28 58.128V50.704ZM56.768 74.704C60.1813 76.9227 64.64 78.992 70.144 80.912L68.288 88.4C61.504 86.224 55.8293 83.3227 51.264 79.696C46.4853 83.28 40.7253 86.1813 33.984 88.4L31.936 80.912C37.824 78.6507 42.4107 76.4747 45.696 74.384C41.5147 69.4773 38.8693 63.7387 37.76 57.168H45.056C45.9947 62.3307 48.0427 66.6187 51.2 70.032C54.7413 66.6187 56.96 62.3307 57.856 57.168H65.152C64.0427 63.824 61.248 69.6693 56.768 74.704ZM55.424 36.432H69.056V43.088H35.008L34.432 36.432H47.936V30.8H55.424V36.432ZM27.328 62.864V88.592H20.096V61.072C19.4987 60.9867 18.9013 60.9013 18.304 60.816C17.92 68.4107 16.8747 74.6613 15.168 79.568L10.176 77.968C12.3947 71.1413 13.504 63.1627 13.504 54.032V49.872H18.432V54.032V54.224C18.9867 54.3093 19.5413 54.3733 20.096 54.416V47.12H12.096L11.328 40.4H20.096V30.736H27.328V40.4H32.832V47.12H27.328V56.144C28.736 56.528 30.528 57.1253 32.704 57.936L32.64 64.72C30.7627 63.9947 28.992 63.376 27.328 62.864ZM89.088 41.616H80.704L75.072 32.08H83.456L89.088 41.616ZM81.856 88.4H74.048V44.432H81.856V88.4ZM92.544 40.144V33.488H120.064C121.6 33.488 122.837 33.9573 123.776 34.896C124.715 35.8347 125.184 37.072 125.184 38.608V80.72C125.184 82.8107 124.416 84.5813 122.88 86.032C121.344 87.4827 119.488 88.208 117.312 88.208C112.192 88.208 108.395 87.952 105.92 87.44L104.128 80.144C107.285 80.784 110.549 81.0613 113.92 80.976C116.181 80.8907 117.333 79.8027 117.376 77.712V41.104C117.376 40.464 117.056 40.144 116.416 40.144H92.544ZM151.04 51.152C151.04 55.2907 150.827 59.0453 150.4 62.416C149.931 66.4693 148.907 70.1173 147.328 73.36C144.64 79.12 139.157 84.1333 130.88 88.4L128.832 80.4C134.549 77.456 138.432 73.7227 140.48 69.2C142.315 65.1467 143.232 59.1093 143.232 51.088V32.08H151.04V51.152ZM170.624 77.776C170.624 78.672 170.773 79.312 171.072 79.696C171.413 80.1227 172.032 80.4 172.928 80.528C174.549 80.7413 176.107 80.7413 177.6 80.528C178.496 80.4 179.115 80.1227 179.456 79.696C179.755 79.312 179.904 78.672 179.904 77.776V68.88L187.648 69.904V80.464C187.648 82.2987 187.072 83.8133 185.92 85.008C184.725 86.2453 183.168 86.9707 181.248 87.184C177.28 87.6533 173.269 87.6533 169.216 87.184C167.339 86.9707 165.803 86.2453 164.608 85.008C163.413 83.7707 162.816 82.256 162.816 80.464V32.08H170.624V77.776Z"/>
</mask>
<path d="M69.888 58.128L55.552 51.408V43.92L69.888 50.576V58.128ZM33.28 50.704L47.68 44.048V51.408L33.28 58.128V50.704ZM56.768 74.704C60.1813 76.9227 64.64 78.992 70.144 80.912L68.288 88.4C61.504 86.224 55.8293 83.3227 51.264 79.696C46.4853 83.28 40.7253 86.1813 33.984 88.4L31.936 80.912C37.824 78.6507 42.4107 76.4747 45.696 74.384C41.5147 69.4773 38.8693 63.7387 37.76 57.168H45.056C45.9947 62.3307 48.0427 66.6187 51.2 70.032C54.7413 66.6187 56.96 62.3307 57.856 57.168H65.152C64.0427 63.824 61.248 69.6693 56.768 74.704ZM55.424 36.432H69.056V43.088H35.008L34.432 36.432H47.936V30.8H55.424V36.432ZM27.328 62.864V88.592H20.096V61.072C19.4987 60.9867 18.9013 60.9013 18.304 60.816C17.92 68.4107 16.8747 74.6613 15.168 79.568L10.176 77.968C12.3947 71.1413 13.504 63.1627 13.504 54.032V49.872H18.432V54.032V54.224C18.9867 54.3093 19.5413 54.3733 20.096 54.416V47.12H12.096L11.328 40.4H20.096V30.736H27.328V40.4H32.832V47.12H27.328V56.144C28.736 56.528 30.528 57.1253 32.704 57.936L32.64 64.72C30.7627 63.9947 28.992 63.376 27.328 62.864ZM89.088 41.616H80.704L75.072 32.08H83.456L89.088 41.616ZM81.856 88.4H74.048V44.432H81.856V88.4ZM92.544 40.144V33.488H120.064C121.6 33.488 122.837 33.9573 123.776 34.896C124.715 35.8347 125.184 37.072 125.184 38.608V80.72C125.184 82.8107 124.416 84.5813 122.88 86.032C121.344 87.4827 119.488 88.208 117.312 88.208C112.192 88.208 108.395 87.952 105.92 87.44L104.128 80.144C107.285 80.784 110.549 81.0613 113.92 80.976C116.181 80.8907 117.333 79.8027 117.376 77.712V41.104C117.376 40.464 117.056 40.144 116.416 40.144H92.544ZM151.04 51.152C151.04 55.2907 150.827 59.0453 150.4 62.416C149.931 66.4693 148.907 70.1173 147.328 73.36C144.64 79.12 139.157 84.1333 130.88 88.4L128.832 80.4C134.549 77.456 138.432 73.7227 140.48 69.2C142.315 65.1467 143.232 59.1093 143.232 51.088V32.08H151.04V51.152ZM170.624 77.776C170.624 78.672 170.773 79.312 171.072 79.696C171.413 80.1227 172.032 80.4 172.928 80.528C174.549 80.7413 176.107 80.7413 177.6 80.528C178.496 80.4 179.115 80.1227 179.456 79.696C179.755 79.312 179.904 78.672 179.904 77.776V68.88L187.648 69.904V80.464C187.648 82.2987 187.072 83.8133 185.92 85.008C184.725 86.2453 183.168 86.9707 181.248 87.184C177.28 87.6533 173.269 87.6533 169.216 87.184C167.339 86.9707 165.803 86.2453 164.608 85.008C163.413 83.7707 162.816 82.256 162.816 80.464V32.08H170.624V77.776Z" fill="#FEC40B"/>
<path d="M69.888 58.128L69.6758 58.5807L70.388 58.9146V58.128H69.888ZM55.552 51.408H55.052V51.7258L55.3398 51.8607L55.552 51.408ZM55.552 43.92L55.7626 43.4665L55.052 43.1366V43.92H55.552ZM69.888 50.576H70.388V50.2569L70.0986 50.1225L69.888 50.576ZM33.28 50.704L33.0702 50.2501L32.78 50.3843V50.704H33.28ZM47.68 44.048H48.18V43.2661L47.4702 43.5941L47.68 44.048ZM47.68 51.408L47.8914 51.8611L48.18 51.7264V51.408H47.68ZM33.28 58.128H32.78V58.9131L33.4914 58.5811L33.28 58.128ZM56.768 74.704L56.3945 74.3716L56.0078 74.8062L56.4955 75.1232L56.768 74.704ZM70.144 80.912L70.6293 81.0323L70.7389 80.59L70.3087 80.4399L70.144 80.912ZM68.288 88.4L68.1353 88.8761L68.6446 89.0395L68.7733 88.5203L68.288 88.4ZM51.264 79.696L51.575 79.3045L51.2728 79.0644L50.964 79.296L51.264 79.696ZM33.984 88.4L33.5017 88.5319L33.6405 89.0394L34.1403 88.8749L33.984 88.4ZM31.936 80.912L31.7567 80.4452L31.3343 80.6075L31.4537 81.0439L31.936 80.912ZM45.696 74.384L45.9644 74.8058L46.4494 74.4972L46.0766 74.0597L45.696 74.384ZM37.76 57.168V56.668H37.1685L37.267 57.2512L37.76 57.168ZM45.056 57.168L45.5479 57.0786L45.4733 56.668H45.056V57.168ZM51.2 70.032L50.833 70.3715L51.1795 70.7462L51.547 70.392L51.2 70.032ZM57.856 57.168V56.668H57.4353L57.3634 57.0825L57.856 57.168ZM65.152 57.168L65.6452 57.2502L65.7422 56.668H65.152V57.168ZM55.424 36.432H54.924V36.932H55.424V36.432ZM69.056 36.432H69.556V35.932H69.056V36.432ZM69.056 43.088V43.588H69.556V43.088H69.056ZM35.008 43.088L34.5099 43.1311L34.5494 43.588H35.008V43.088ZM34.432 36.432V35.932H33.8869L33.9339 36.4751L34.432 36.432ZM47.936 36.432V36.932H48.436V36.432H47.936ZM47.936 30.8V30.3H47.436V30.8H47.936ZM55.424 30.8H55.924V30.3H55.424V30.8ZM27.328 62.864L27.475 62.3861L26.828 62.187V62.864H27.328ZM27.328 88.592V89.092H27.828V88.592H27.328ZM20.096 88.592H19.596V89.092H20.096V88.592ZM20.096 61.072H20.596V60.6384L20.1667 60.577L20.096 61.072ZM18.304 60.816L18.3747 60.321L17.8323 60.2435L17.8046 60.7907L18.304 60.816ZM15.168 79.568L15.0154 80.0441L15.48 80.193L15.6402 79.7323L15.168 79.568ZM10.176 77.968L9.70048 77.8135L9.54531 78.2909L10.0234 78.4441L10.176 77.968ZM13.504 49.872V49.372H13.004V49.872H13.504ZM18.432 49.872H18.932V49.372H18.432V49.872ZM18.432 54.224H17.932V54.653L18.356 54.7182L18.432 54.224ZM20.096 54.416L20.0577 54.9145L20.596 54.9559V54.416H20.096ZM20.096 47.12H20.596V46.62H20.096V47.12ZM12.096 47.12L11.5992 47.1768L11.6499 47.62H12.096V47.12ZM11.328 40.4V39.9H10.7676L10.8312 40.4568L11.328 40.4ZM20.096 40.4V40.9H20.596V40.4H20.096ZM20.096 30.736V30.236H19.596V30.736H20.096ZM27.328 30.736H27.828V30.236H27.328V30.736ZM27.328 40.4H26.828V40.9H27.328V40.4ZM32.832 40.4H33.332V39.9H32.832V40.4ZM32.832 47.12V47.62H33.332V47.12H32.832ZM27.328 47.12V46.62H26.828V47.12H27.328ZM27.328 56.144H26.828V56.5259L27.1964 56.6264L27.328 56.144ZM32.704 57.936L33.204 57.9407L33.2073 57.5899L32.8786 57.4675L32.704 57.936ZM32.64 64.72L32.4598 65.1864L33.1332 65.4466L33.14 64.7247L32.64 64.72ZM69.888 58.128L70.1002 57.6753L55.7642 50.9553L55.552 51.408L55.3398 51.8607L69.6758 58.5807L69.888 58.128ZM55.552 51.408H56.052V43.92H55.552H55.052V51.408H55.552ZM55.552 43.92L55.3414 44.3735L69.6774 51.0295L69.888 50.576L70.0986 50.1225L55.7626 43.4665L55.552 43.92ZM69.888 50.576H69.388V58.128H69.888H70.388V50.576H69.888ZM33.28 50.704L33.4898 51.1579L47.8898 44.5019L47.68 44.048L47.4702 43.5941L33.0702 50.2501L33.28 50.704ZM47.68 44.048H47.18V51.408H47.68H48.18V44.048H47.68ZM47.68 51.408L47.4686 50.9549L33.0686 57.6749L33.28 58.128L33.4914 58.5811L47.8914 51.8611L47.68 51.408ZM33.28 58.128H33.78V50.704H33.28H32.78V58.128H33.28ZM56.768 74.704L56.4955 75.1232C59.9535 77.3709 64.4522 79.456 69.9793 81.3841L70.144 80.912L70.3087 80.4399C64.8278 78.528 60.4091 76.4744 57.0405 74.2848L56.768 74.704ZM70.144 80.912L69.6587 80.7917L67.8027 88.2797L68.288 88.4L68.7733 88.5203L70.6293 81.0323L70.144 80.912ZM68.288 88.4L68.4407 87.9239C61.7018 85.7624 56.0839 82.8863 51.575 79.3045L51.264 79.696L50.953 80.0875C55.5747 83.759 61.3062 86.6856 68.1353 88.8761L68.288 88.4ZM51.264 79.696L50.964 79.296C46.2361 82.8419 40.5268 85.7203 33.8277 87.9251L33.984 88.4L34.1403 88.8749C40.9238 86.6424 46.7345 83.7181 51.564 80.096L51.264 79.696ZM33.984 88.4L34.4663 88.2681L32.4183 80.7801L31.936 80.912L31.4537 81.0439L33.5017 88.5319L33.984 88.4ZM31.936 80.912L32.1153 81.3788C38.0178 79.1118 42.6391 76.9219 45.9644 74.8058L45.696 74.384L45.4276 73.9622C42.1822 76.0274 37.6302 78.1895 31.7567 80.4452L31.936 80.912ZM45.696 74.384L46.0766 74.0597C41.9558 69.2241 39.3479 63.5695 38.253 57.0848L37.76 57.168L37.267 57.2512C38.3908 63.9078 41.0735 69.7305 45.3154 74.7083L45.696 74.384ZM37.76 57.168V57.668H45.056V57.168V56.668H37.76V57.168ZM45.056 57.168L44.5641 57.2574C45.5175 62.5013 47.603 66.8797 50.833 70.3715L51.2 70.032L51.5671 69.6925C48.4823 66.3576 46.4718 62.1601 45.5479 57.0786L45.056 57.168ZM51.2 70.032L51.547 70.392C55.1699 66.9 57.4357 62.5136 58.3486 57.2535L57.856 57.168L57.3634 57.0825C56.4843 62.1478 54.3127 66.3373 50.853 69.672L51.2 70.032ZM57.856 57.168V57.668H65.152V57.168V56.668H57.856V57.168ZM65.152 57.168L64.6588 57.0858C63.565 63.6489 60.8117 69.4075 56.3945 74.3716L56.768 74.704L57.1415 75.0364C61.6843 69.9312 64.5204 63.9991 65.6452 57.2502L65.152 57.168ZM55.424 36.432V36.932H69.056V36.432V35.932H55.424V36.432ZM69.056 36.432H68.556V43.088H69.056H69.556V36.432H69.056ZM69.056 43.088V42.588H35.008V43.088V43.588H69.056V43.088ZM35.008 43.088L35.5061 43.0449L34.9301 36.3889L34.432 36.432L33.9339 36.4751L34.5099 43.1311L35.008 43.088ZM34.432 36.432V36.932H47.936V36.432V35.932H34.432V36.432ZM47.936 36.432H48.436V30.8H47.936H47.436V36.432H47.936ZM47.936 30.8V31.3H55.424V30.8V30.3H47.936V30.8ZM55.424 30.8H54.924V36.432H55.424H55.924V30.8H55.424ZM27.328 62.864H26.828V88.592H27.328H27.828V62.864H27.328ZM27.328 88.592V88.092H20.096V88.592V89.092H27.328V88.592ZM20.096 88.592H20.596V61.072H20.096H19.596V88.592H20.096ZM20.096 61.072L20.1667 60.577C20.16 60.5761 20.1454 60.574 20.1387 60.573C20.132 60.5721 20.1174 60.57 20.1107 60.569C20.104 60.5681 20.0894 60.566 20.0827 60.565C20.076 60.5641 20.0614 60.562 20.0547 60.561C20.048 60.5601 20.0334 60.558 20.0267 60.557C20.02 60.5561 20.0054 60.554 19.9987 60.553C19.992 60.5521 19.9774 60.55 19.9707 60.549C19.964 60.5481 19.9494 60.546 19.9427 60.545C19.936 60.5441 19.9214 60.542 19.9147 60.541C19.908 60.5401 19.8934 60.538 19.8867 60.537C19.88 60.5361 19.8654 60.534 19.8587 60.533C19.852 60.5321 19.8374 60.53 19.8307 60.529C19.824 60.5281 19.8094 60.526 19.8027 60.525C19.796 60.5241 19.7814 60.522 19.7747 60.521C19.768 60.5201 19.7534 60.518 19.7467 60.517C19.74 60.5161 19.7254 60.514 19.7187 60.513C19.712 60.5121 19.6974 60.51 19.6907 60.509C19.684 60.5081 19.6694 60.506 19.6627 60.505C19.656 60.5041 19.6414 60.502 19.6347 60.501C19.628 60.5001 19.6134 60.498 19.6067 60.497C19.6 60.4961 19.5854 60.494 19.5787 60.493C19.572 60.4921 19.5574 60.49 19.5507 60.489C19.544 60.4881 19.5294 60.486 19.5227 60.485C19.516 60.4841 19.5014 60.482 19.4947 60.481C19.488 60.4801 19.4734 60.478 19.4667 60.477C19.46 60.4761 19.4454 60.474 19.4387 60.473C19.432 60.4721 19.4174 60.47 19.4107 60.469C19.404 60.4681 19.3894 60.466 19.3827 60.465C19.376 60.4641 19.3614 60.462 19.3547 60.461C19.348 60.4601 19.3334 60.458 19.3267 60.457C19.32 60.4561 19.3054 60.454 19.2987 60.453C19.292 60.4521 19.2774 60.45 19.2707 60.449C19.2247 60.4425 19.0927 60.4236 19.0467 60.417C19.0007 60.4105 18.8687 60.3916 18.8227 60.385C18.7767 60.3785 18.6447 60.3596 18.5987 60.353C18.5527 60.3465 18.4207 60.3276 18.3747 60.321L18.304 60.816L18.2333 61.311C18.24 61.3119 18.2546 61.314 18.2613 61.315C18.268 61.3159 18.2826 61.318 18.2893 61.319C18.296 61.3199 18.3106 61.322 18.3173 61.323C18.324 61.3239 18.3386 61.326 18.3453 61.327C18.352 61.3279 18.3666 61.33 18.3733 61.331C18.38 61.3319 18.3946 61.334 18.4013 61.335C18.408 61.3359 18.4226 61.338 18.4293 61.339C18.436 61.3399 18.4506 61.342 18.4573 61.343C18.464 61.3439 18.4786 61.346 18.4853 61.347C18.492 61.3479 18.5066 61.35 18.5133 61.351C18.52 61.3519 18.5346 61.354 18.5413 61.355C18.548 61.3559 18.5626 61.358 18.5693 61.359C18.576 61.3599 18.5906 61.362 18.5973 61.363C18.604 61.3639 18.6186 61.366 18.6253 61.367C18.632 61.3679 18.6466 61.37 18.6533 61.371C18.66 61.3719 18.6746 61.374 18.6813 61.375C18.688 61.3759 18.7026 61.378 18.7093 61.379C18.716 61.3799 18.7306 61.382 18.7373 61.383C18.744 61.3839 18.7586 61.386 18.7653 61.387C18.772 61.3879 18.7866 61.39 18.7933 61.391C18.8 61.3919 18.8146 61.394 18.8213 61.395C18.828 61.3959 18.8426 61.398 18.8493 61.399C18.856 61.3999 18.8706 61.402 18.8773 61.403C18.884 61.4039 18.8986 61.406 18.9053 61.407C18.912 61.4079 18.9266 61.41 18.9333 61.411C18.94 61.4119 18.9546 61.414 18.9613 61.415C18.968 61.4159 18.9826 61.418 18.9893 61.419C18.996 61.4199 19.0106 61.422 19.0173 61.423C19.024 61.4239 19.0386 61.426 19.0453 61.427C19.052 61.4279 19.0666 61.43 19.0733 61.431C19.08 61.4319 19.0946 61.434 19.1013 61.435C19.108 61.4359 19.1226 61.438 19.1293 61.439C19.1753 61.4455 19.3073 61.4644 19.3533 61.471C19.3993 61.4775 19.5313 61.4964 19.5773 61.503C19.6233 61.5095 19.7553 61.5284 19.8013 61.535C19.8473 61.5415 19.9793 61.5604 20.0253 61.567L20.096 61.072ZM18.304 60.816L17.8046 60.7907C17.422 68.3578 16.3814 74.5574 14.6958 79.4037L15.168 79.568L15.6402 79.7323C17.3679 74.7653 18.418 68.4635 18.8034 60.8412L18.304 60.816ZM15.168 79.568L15.3206 79.0919L10.3286 77.4919L10.176 77.968L10.0234 78.4441L15.0154 80.0441L15.168 79.568ZM10.176 77.968L10.6515 78.1225C12.8901 71.2345 14.004 63.2016 14.004 54.032H13.504H13.004C13.004 63.1238 11.8992 71.0481 9.70048 77.8135L10.176 77.968ZM13.504 54.032H14.004V49.872H13.504H13.004V54.032H13.504ZM13.504 49.872V50.372H18.432V49.872V49.372H13.504V49.872ZM18.432 49.872H17.932V54.032H18.432H18.932V49.872H18.432ZM18.432 54.032H17.932V54.224H18.432H18.932V54.032H18.432ZM18.432 54.224L18.356 54.7182C18.923 54.8054 19.4903 54.8709 20.0577 54.9145L20.096 54.416L20.1343 53.9175C19.5924 53.8758 19.0503 53.8132 18.508 53.7298L18.432 54.224ZM20.096 54.416H20.596V47.12H20.096H19.596V54.416H20.096ZM20.096 47.12V46.62H12.096V47.12V47.62H20.096V47.12ZM12.096 47.12L12.5928 47.0632L11.8248 40.3432L11.328 40.4L10.8312 40.4568L11.5992 47.1768L12.096 47.12ZM11.328 40.4V40.9H20.096V40.4V39.9H11.328V40.4ZM20.096 40.4H20.596V30.736H20.096H19.596V40.4H20.096ZM20.096 30.736V31.236H27.328V30.736V30.236H20.096V30.736ZM27.328 30.736H26.828V40.4H27.328H27.828V30.736H27.328ZM27.328 40.4V40.9H32.832V40.4V39.9H27.328V40.4ZM32.832 40.4H32.332V47.12H32.832H33.332V40.4H32.832ZM32.832 47.12V46.62H27.328V47.12V47.62H32.832V47.12ZM27.328 47.12H26.828V56.144H27.328H27.828V47.12H27.328ZM27.328 56.144L27.1964 56.6264C28.584 57.0048 30.3604 57.5965 32.5294 58.4045L32.704 57.936L32.8786 57.4675C30.6956 56.6542 28.888 56.0512 27.4596 55.6616L27.328 56.144ZM32.704 57.936L32.204 57.9313L32.14 64.7153L32.64 64.72L33.14 64.7247L33.204 57.9407L32.704 57.936ZM32.64 64.72L32.8202 64.2536C30.9336 63.5247 29.1518 62.902 27.475 62.3861L27.328 62.864L27.181 63.3419C28.8322 63.85 30.5917 64.4646 32.4598 65.1864L32.64 64.72ZM89.088 41.616V42.116H89.964L89.5185 41.3617L89.088 41.616ZM80.704 41.616L80.2735 41.8703L80.4186 42.116H80.704V41.616ZM75.072 32.08V31.58H74.196L74.6415 32.3343L75.072 32.08ZM83.456 32.08L83.8865 31.8257L83.7414 31.58H83.456V32.08ZM81.856 88.4V88.9H82.356V88.4H81.856ZM74.048 88.4H73.548V88.9H74.048V88.4ZM74.048 44.432V43.932H73.548V44.432H74.048ZM81.856 44.432H82.356V43.932H81.856V44.432ZM92.544 40.144H92.044V40.644H92.544V40.144ZM92.544 33.488V32.988H92.044V33.488H92.544ZM123.776 34.896L124.13 34.5424L124.13 34.5424L123.776 34.896ZM122.88 86.032L123.223 86.3955L123.223 86.3955L122.88 86.032ZM105.92 87.44L105.434 87.5593L105.51 87.8657L105.819 87.9296L105.92 87.44ZM104.128 80.144L104.227 79.654L103.454 79.4973L103.642 80.2633L104.128 80.144ZM113.92 80.976L113.933 81.4759L113.939 81.4756L113.92 80.976ZM117.376 77.712L117.876 77.7222V77.712H117.376ZM89.088 41.616V41.116H80.704V41.616V42.116H89.088V41.616ZM80.704 41.616L81.1345 41.3617L75.5025 31.8257L75.072 32.08L74.6415 32.3343L80.2735 41.8703L80.704 41.616ZM75.072 32.08V32.58H83.456V32.08V31.58H75.072V32.08ZM83.456 32.08L83.0255 32.3343L88.6575 41.8703L89.088 41.616L89.5185 41.3617L83.8865 31.8257L83.456 32.08ZM81.856 88.4V87.9H74.048V88.4V88.9H81.856V88.4ZM74.048 88.4H74.548V44.432H74.048H73.548V88.4H74.048ZM74.048 44.432V44.932H81.856V44.432V43.932H74.048V44.432ZM81.856 44.432H81.356V88.4H81.856H82.356V44.432H81.856ZM92.544 40.144H93.044V33.488H92.544H92.044V40.144H92.544ZM92.544 33.488V33.988H120.064V33.488V32.988H92.544V33.488ZM120.064 33.488V33.988C121.49 33.988 122.592 34.4195 123.422 35.2495L123.776 34.896L124.13 34.5424C123.082 33.4952 121.71 32.988 120.064 32.988V33.488ZM123.776 34.896L123.422 35.2495C124.253 36.0796 124.684 37.1821 124.684 38.608H125.184H125.684C125.684 36.9619 125.177 35.5897 124.13 34.5424L123.776 34.896ZM125.184 38.608H124.684V80.72H125.184H125.684V38.608H125.184ZM125.184 80.72H124.684C124.684 82.6715 123.974 84.3112 122.537 85.6685L122.88 86.032L123.223 86.3955C124.858 84.8515 125.684 82.9499 125.684 80.72H125.184ZM122.88 86.032L122.537 85.6685C121.097 87.0286 119.365 87.708 117.312 87.708V88.208V88.708C119.611 88.708 121.591 87.9367 123.223 86.3955L122.88 86.032ZM117.312 88.208V87.708C112.199 87.708 108.444 87.4516 106.021 86.9504L105.92 87.44L105.819 87.9296C108.346 88.4524 112.185 88.708 117.312 88.708V88.208ZM105.92 87.44L106.406 87.3207L104.614 80.0247L104.128 80.144L103.642 80.2633L105.434 87.5593L105.92 87.44ZM104.128 80.144L104.029 80.634C107.225 81.2818 110.526 81.5621 113.933 81.4758L113.92 80.976L113.907 80.4762C110.573 80.5606 107.346 80.2862 104.227 79.654L104.128 80.144ZM113.92 80.976L113.939 81.4756C115.139 81.4303 116.128 81.1162 116.823 80.4595C117.525 79.7968 117.853 78.857 117.876 77.7222L117.376 77.712L116.876 77.7018C116.857 78.6577 116.587 79.3072 116.137 79.7325C115.68 80.1638 114.962 80.4363 113.901 80.4764L113.92 80.976ZM117.376 77.712H117.876V41.104H117.376H116.876V77.712H117.376ZM117.376 41.104H117.876C117.876 40.7069 117.776 40.3173 117.49 40.0304C117.203 39.7436 116.813 39.644 116.416 39.644V40.144V40.644C116.659 40.644 116.749 40.7044 116.782 40.7376C116.816 40.7707 116.876 40.8611 116.876 41.104H117.376ZM116.416 40.144V39.644H92.544V40.144V40.644H116.416V40.144ZM150.4 62.416L149.904 62.3532L149.903 62.3585L150.4 62.416ZM147.328 73.36L146.878 73.1411L146.875 73.1486L147.328 73.36ZM130.88 88.4L130.396 88.524L130.551 89.132L131.109 88.8444L130.88 88.4ZM128.832 80.4L128.603 79.9555L128.249 80.1379L128.348 80.524L128.832 80.4ZM140.48 69.2L140.935 69.4063L140.936 69.4062L140.48 69.2ZM143.232 32.08V31.58H142.732V32.08H143.232ZM151.04 32.08H151.54V31.58H151.04V32.08ZM171.072 79.696L170.677 80.003L170.682 80.0083L171.072 79.696ZM172.928 80.528L172.857 81.023L172.863 81.0237L172.928 80.528ZM177.6 80.528L177.529 80.033L177.529 80.033L177.6 80.528ZM179.456 79.696L179.846 80.0084L179.851 80.003L179.456 79.696ZM179.904 68.88L179.97 68.3843L179.404 68.3095V68.88H179.904ZM187.648 69.904H188.148V69.4658L187.714 69.4083L187.648 69.904ZM185.92 85.008L186.28 85.3553L186.28 85.3551L185.92 85.008ZM181.248 87.184L181.193 86.687L181.189 86.6875L181.248 87.184ZM169.216 87.184L169.274 86.6873L169.272 86.6872L169.216 87.184ZM164.608 85.008L164.968 84.6607L164.968 84.6607L164.608 85.008ZM162.816 32.08V31.58H162.316V32.08H162.816ZM170.624 32.08H171.124V31.58H170.624V32.08ZM151.04 51.152H150.54C150.54 55.274 150.327 59.0073 149.904 62.3532L150.4 62.416L150.896 62.4788C151.326 59.0834 151.54 55.3073 151.54 51.152H151.04ZM150.4 62.416L149.903 62.3585C149.44 66.363 148.429 69.9554 146.878 73.1411L147.328 73.36L147.778 73.5789C149.384 70.2793 150.422 66.5756 150.897 62.4735L150.4 62.416ZM147.328 73.36L146.875 73.1486C144.251 78.7711 138.874 83.7169 130.651 87.9556L130.88 88.4L131.109 88.8444C139.441 84.5498 145.029 79.4689 147.781 73.5714L147.328 73.36ZM130.88 88.4L131.364 88.276L129.316 80.276L128.832 80.4L128.348 80.524L130.396 88.524L130.88 88.4ZM128.832 80.4L129.061 80.8445C134.849 77.8643 138.829 74.0585 140.935 69.4063L140.48 69.2L140.025 68.9937C138.035 73.3868 134.25 77.0477 128.603 79.9555L128.832 80.4ZM140.48 69.2L140.936 69.4062C142.814 65.2552 143.732 59.1323 143.732 51.088H143.232H142.732C142.732 59.0863 141.815 65.0381 140.024 68.9938L140.48 69.2ZM143.232 51.088H143.732V32.08H143.232H142.732V51.088H143.232ZM143.232 32.08V32.58H151.04V32.08V31.58H143.232V32.08ZM151.04 32.08H150.54V51.152H151.04H151.54V32.08H151.04ZM170.624 77.776H170.124C170.124 78.7014 170.273 79.4833 170.677 80.003L171.072 79.696L171.467 79.389C171.274 79.1407 171.124 78.6426 171.124 77.776H170.624ZM171.072 79.696L170.682 80.0083C171.141 80.5822 171.913 80.8881 172.857 81.023L172.928 80.528L172.999 80.033C172.151 79.9119 171.686 79.6632 171.462 79.3837L171.072 79.696ZM172.928 80.528L172.863 81.0237C174.525 81.2425 176.129 81.2433 177.671 81.023L177.6 80.528L177.529 80.033C176.085 80.2394 174.573 80.2402 172.993 80.0323L172.928 80.528ZM177.6 80.528L177.671 81.023C178.615 80.8881 179.387 80.5822 179.846 80.0083L179.456 79.696L179.066 79.3837C178.842 79.6632 178.377 79.9119 177.529 80.033L177.6 80.528ZM179.456 79.696L179.851 80.003C180.255 79.4833 180.404 78.7014 180.404 77.776H179.904H179.404C179.404 78.6426 179.254 79.1407 179.061 79.389L179.456 79.696ZM179.904 77.776H180.404V68.88H179.904H179.404V77.776H179.904ZM179.904 68.88L179.838 69.3757L187.582 70.3997L187.648 69.904L187.714 69.4083L179.97 68.3843L179.904 68.88ZM187.648 69.904H187.148V80.464H187.648H188.148V69.904H187.648ZM187.648 80.464H187.148C187.148 82.1841 186.612 83.5697 185.56 84.6609L185.92 85.008L186.28 85.3551C187.532 84.057 188.148 82.4132 188.148 80.464H187.648ZM185.92 85.008L185.56 84.6607C184.457 85.8038 183.012 86.4849 181.193 86.6871L181.248 87.184L181.303 87.6809C183.324 87.4564 184.994 86.6868 186.28 85.3553L185.92 85.008ZM181.248 87.184L181.189 86.6875C177.261 87.1521 173.289 87.1523 169.274 86.6873L169.216 87.184L169.158 87.6807C173.25 88.1544 177.299 88.1545 181.307 87.6805L181.248 87.184ZM169.216 87.184L169.272 86.6872C167.498 86.4856 166.074 85.8061 164.968 84.6607L164.608 85.008L164.248 85.3553C165.532 86.6846 167.179 87.4557 169.16 87.6808L169.216 87.184ZM164.608 85.008L164.968 84.6607C163.867 83.5208 163.316 82.1324 163.316 80.464H162.816H162.316C162.316 82.3796 162.96 84.0205 164.248 85.3553L164.608 85.008ZM162.816 80.464H163.316V32.08H162.816H162.316V80.464H162.816ZM162.816 32.08V32.58H170.624V32.08V31.58H162.816V32.08ZM170.624 32.08H170.124V77.776H170.624H171.124V32.08H170.624Z" fill="#FEC40B" mask="url(#path-2-outside-1_2900_2109)"/>
<rect x="74" y="28" width="17" height="15" fill="white"/>
<circle cx="81.5" cy="35.5" r="4.5" fill="black"/>
<path d="M107.75 13.8788L104.617 15.0436C104.617 15.2168 104.633 15.4687 104.649 15.815C104.664 16.1613 104.68 16.4289 104.68 16.6177C104.68 17.1844 104.617 17.7039 104.507 18.1761C104.397 18.6483 104.208 19.1048 103.972 19.5141L106.742 21.4817L104.995 23.2132L102.539 21.2299C102.193 21.5604 101.799 21.8595 101.359 22.1428C100.918 22.4262 100.43 22.7095 99.8791 22.9928L98.2263 20.7104C98.5726 20.2854 98.8244 19.8446 98.9818 19.4196C99.1393 18.9946 99.218 18.5696 99.218 18.1289C99.218 17.2474 98.9189 16.5863 98.3207 16.1298C97.7226 15.6733 96.8096 15.4529 95.6133 15.4529C94.2753 15.4529 92.8586 16.1613 91.3475 17.5937C89.8363 19.0261 88.2465 21.1669 86.5779 24.0003L87.0659 41.7561L76 40.0876L81.0214 9.70745L86.1372 8.6528L86.3891 18.1761C87.0817 17.2002 87.7428 16.3501 88.3882 15.5946C89.0335 14.839 89.6632 14.1779 90.2613 13.627L88.8761 10.4945L91.0641 9.36115L92.229 12.0371C92.9845 11.5806 93.7558 11.2028 94.5429 10.888C95.3299 10.5732 96.1327 10.3528 96.9513 10.2269L97.0457 7L99.4068 7.22037L98.9189 10.1639C100.131 10.2269 101.154 10.4945 102.004 10.9825C102.854 11.4704 103.515 12.1473 103.956 13.0288L106.9 11.4862L107.75 13.8788ZM84.4214 34.9875C84.4214 34.2319 84.1696 33.6023 83.6659 33.0671C83.1621 32.5319 82.5325 32.28 81.7927 32.28C81.0843 32.28 80.4704 32.5476 79.9352 33.0671C79.4001 33.5865 79.1482 34.2319 79.1482 34.9875C79.1482 35.869 79.3686 36.5301 79.8093 36.9551C80.2501 37.3801 80.9112 37.6005 81.7927 37.6005C82.6899 37.6005 83.351 37.3801 83.7761 36.9551C84.2011 36.5301 84.4214 35.869 84.4214 34.9875ZM84.5788 27.0855C84.5788 26.4244 84.4057 25.9049 84.0594 25.5586C83.7131 25.2123 83.1779 25.0234 82.4381 25.0234C81.7769 25.0234 81.2575 25.1966 80.9269 25.5586C80.5964 25.9207 80.4075 26.4244 80.4075 27.0855C80.4075 27.7781 80.5806 28.2818 80.9269 28.6124C81.2732 28.9429 81.7769 29.1161 82.4381 29.1161C83.1621 29.1161 83.7131 28.9429 84.0594 28.6124C84.4057 28.2818 84.5788 27.7781 84.5788 27.0855Z" fill="#88B24D" stroke="black" stroke-width="0.5" stroke-miterlimit="10"/>
</svg>
