<svg width="736" height="511" viewBox="0 0 736 511" fill="none" xmlns="http://www.w3.org/2000/svg">
<rect width="736" height="511" fill="#D9D9D9"/>
<rect x="290.606" y="62" width="155.787" height="387" rx="77.8933" fill="#815BD8"/>
<path d="M402.26 146.884L403.552 154.636L396.56 155.776V176.752H388.58V157.068L366.008 160.64L364.792 152.888L388.58 149.088V106.832H396.56V147.796L402.26 146.884ZM373.836 110.708C378.852 114.356 383.184 117.928 386.68 121.5L381.208 127.048C378.168 123.628 373.836 119.98 368.212 116.18L373.836 110.708ZM371.556 128.188C376.724 131.988 381.056 135.712 384.704 139.436L379.004 145.136C375.964 141.64 371.556 137.764 365.932 133.66L371.556 128.188ZM334.544 126.212H346.172V117.472C342.904 117.928 339.56 118.308 336.14 118.612L334.544 111.164C344.348 110.404 353.088 108.96 360.84 106.68L363.652 114.128C360.612 114.888 357.496 115.648 354.152 116.256V126.212H363.576V133.888H354.152V136.472C358.104 139.512 362.132 142.856 366.236 146.58L361.752 153.268C358.788 149.544 356.28 146.504 354.152 144.224V176.676H346.172V144.908C343.436 151.292 339.864 157.22 335.608 162.54L332.112 153.648C338.04 147.872 342.372 141.26 345.184 133.888H334.544V126.212ZM387.516 193.016H378.092V211.712H387.516V193.016ZM387.516 219.388H378.016C377.256 234.588 372.772 245.836 364.716 253.132L358.712 247.812C365.78 241.732 369.656 232.308 370.264 219.388H362.892V211.712H370.34V193.016H364.564V185.568H401.272V193.016H395.192V211.712H403.4V219.388H395.192V252.752H387.516V219.388ZM342.98 193.472H334.848V185.872H361.904V193.472H350.504C349.516 198.792 348.148 203.732 346.4 208.444H359.852V244.848H346.932V250.244H339.636V222.048C338.572 223.72 337.432 225.316 336.368 226.836L332.188 219.996C337.508 212.092 341.156 203.276 342.98 193.472ZM346.932 237.932H352.556V215.436H346.932V237.932ZM334.392 277.68H363.196C363.652 273.728 363.956 269.7 364.032 265.444V258.604H372.088V263.62C372.088 268.56 371.784 273.272 371.252 277.68H401.728V285.432H373.076C378.548 301.316 388.656 313.552 403.476 322.216L398.46 328.752C384.172 319.936 374.064 307.7 368.288 292.044C363.12 308.992 352.936 321.456 337.736 329.436L332.644 322.748C347.996 315.3 357.724 302.836 361.828 285.432H334.392V277.68ZM341.612 348.208H364.108V344.788H335.228V338.1H364.108V334.376H372.012V338.1H400.892V344.788H372.012V348.208H394.508V364.168H372.012V367.664H395.496V377.544H402.944V383.852H395.496V393.808H372.012V397.304C372.012 402.168 369.352 404.6 364.108 404.6H354.76L353.088 397.152C355.976 397.456 358.788 397.684 361.448 397.684C363.196 397.684 364.108 396.924 364.108 395.404V393.808H340.016V387.576H364.108V383.852H333.176V377.544H364.108V373.744H340.092V367.664H364.108V364.168H341.612V348.208ZM386.604 358.392V354.06H372.012V358.392H386.604ZM364.108 358.392V354.06H349.516V358.392H364.108ZM372.012 373.744V377.544H387.972V373.744H372.012ZM387.972 383.852H372.012V387.576H387.972V383.852Z" fill="#D8CAF1"/>
<rect x="471.918" y="116" width="124.981" height="279" rx="62.4906" fill="#636363"/>
<path d="M508.745 176.376H542.345V173.856H548.225V176.376H560.209V182.088H548.225V192.448C548.225 196.144 546.209 197.992 542.177 197.992H535.177L533.833 192.28C536.073 192.504 538.145 192.672 540.161 192.672C541.617 192.672 542.345 192.112 542.345 190.992V182.088H508.745V176.376ZM552.145 147.76V162.264H520.169V164.672C520.169 166.184 520.953 166.968 522.633 166.968H551.585C552.425 166.912 552.985 166.632 553.321 166.072C553.545 165.68 553.769 164.392 554.049 162.208L559.593 164.056C559.201 166.632 558.809 168.424 558.417 169.544C557.745 171.336 556.065 172.232 553.489 172.344H520.281C516.249 172.344 514.289 170.552 514.289 167.024V147.76H552.145ZM520.169 157H546.265V153.024H520.169V157ZM523.137 182.368C526.721 185.168 529.801 187.968 532.265 190.768L527.897 195.136C525.769 192.448 522.801 189.536 518.937 186.4L523.137 182.368ZM527.897 203.76H559.593V209.248H546.601V215.072H558.361V242.344C558.361 246.04 556.681 247.944 553.433 247.944H549.513L548.001 242.344L551.585 242.624C552.369 242.624 552.761 242.064 552.761 241.056V220.56H546.601V253.824H541.001V220.56H534.785V248.112H529.185V215.072H541.001V209.248H527.897V203.76ZM519.609 202.08H525.209V225.936C525.041 238.704 521.569 248 514.793 253.88L510.481 250.072C516.473 245.032 519.497 237.024 519.609 225.936V225.6L515.633 228.4C513.953 224.368 511.657 219.944 508.801 215.128L513.505 212.216C516.081 216.64 518.097 220.56 519.609 223.92V202.08ZM528.065 260.096H558.865V265.584H546.265V285.016H560.601V290.56H546.265V309.88H540.553V290.56H526.441V285.016H540.553V265.584H528.065V260.096ZM552.761 267.488L557.857 268.832C556.737 274.208 555.281 278.856 553.545 282.888L548.673 281.152C550.241 277.568 551.585 272.976 552.761 267.488ZM533.553 267.656C535.009 271.744 536.353 276.448 537.529 281.768L532.545 283C531.537 278.24 530.193 273.704 528.569 269.336L533.553 267.656ZM516.473 258.36C520.001 261.104 523.025 263.848 525.545 266.536L521.513 270.624C519.385 268.048 516.305 265.304 512.329 262.392L516.473 258.36ZM508.521 274.544H521.849V297.56C523.249 296.272 524.761 294.816 526.329 293.248L527.953 299.408C524.481 302.712 520.841 305.68 516.921 308.312L514.737 303.048C515.689 302.208 516.193 301.2 516.193 300.024V280.144H508.521V274.544ZM514.961 336.312C513.449 338.328 511.825 340.288 510.145 342.192L508.185 335.92C513.281 329.648 517.033 322.256 519.497 313.744L524.985 316.32C523.865 319.904 522.521 323.376 520.897 326.624V365.488H514.961V336.312ZM544.977 333.848H550.633V365.32H544.977V333.848ZM530.977 334.016H536.633V342.248C536.521 353.112 533.777 361.12 528.457 366.16L524.033 362.296C528.569 358.152 530.865 351.432 530.977 342.248V334.016ZM538.033 314.304H543.353C546.713 321.472 552.537 327.744 560.825 333.12L557.521 338.104C549.961 333.176 544.361 327.128 540.665 319.904C536.465 327.968 531.145 334.24 524.649 338.664L521.401 333.68C528.569 328.752 534.113 322.256 538.033 314.304Z" fill="#D0CED1"/>
<rect x="140" y="116" width="124.981" height="279" rx="62.4906" fill="#636363"/>
<path d="M177.716 158.216H184.66V148.08H190.54V158.216H195.748V163.872H190.54V167.736C192.22 169.472 193.9 171.376 195.58 173.392C198.548 169.92 201.124 165.832 203.308 161.24L208.18 163.648C206.5 167.176 204.708 170.368 202.692 173.28L206.612 172.104C207.228 176.248 208.852 179.944 211.54 183.248C213.668 179.944 215.124 176.08 215.908 171.712L221.116 172.776C219.268 169.92 217.14 166.896 214.676 163.76L219.212 160.96C223.356 166 226.604 170.424 228.844 174.232L223.972 177.536C223.188 176.08 222.292 174.624 221.34 173.112C220.276 178.712 218.428 183.528 215.796 187.448C219.268 190.248 223.58 192.656 228.844 194.616L225.876 199.936C220.388 197.752 215.796 195.064 212.212 191.928C208.404 195.848 203.476 198.592 197.54 200.216L194.236 194.952C199.892 193.496 204.484 191.088 208.012 187.616C204.876 183.808 202.804 179.44 201.796 174.512C200.844 175.744 199.948 176.92 199.052 177.928L197.596 176.92L194.796 181.12C193.228 177.984 191.772 175.352 190.54 173.224V199.6H184.66V174.288C183.036 178.768 181.02 182.912 178.668 186.72L176.092 180.336C179.9 175.52 182.644 170.032 184.436 163.872H177.716V158.216ZM196.7 154.576H209.356C208.46 152.392 207.508 150.376 206.444 148.528L212.38 147.52C213.332 149.592 214.284 151.944 215.236 154.576H227.276V160.288H196.7V154.576ZM226.212 205.984V255.88H220.388V253.92H184.66V255.88H178.836V205.984H226.212ZM184.66 248.768H220.388V211.248H184.66V248.768ZM190.54 214.944H214.564V220.096H190.54V214.944ZM187.348 224.464H217.7V229.616H209.356V239.584C209.356 240.536 209.804 241.04 210.756 241.04H211.988C212.604 241.04 213.108 240.872 213.556 240.592C214.004 240.368 214.34 238.688 214.564 235.608L219.324 237.232C218.82 241.488 218.204 244.008 217.42 244.736C216.636 245.408 215.18 245.744 213.052 245.8H208.964C207.396 245.8 206.164 245.296 205.38 244.4C204.484 243.392 204.036 242.216 204.036 240.76V229.616H200.172C199.612 233.928 198.548 237.344 196.98 239.808C195.076 242.72 192.108 245.072 188.076 246.752L185.388 242.104C188.636 240.872 190.988 239.08 192.556 236.728C193.676 234.936 194.516 232.528 194.964 229.616H187.348V224.464ZM177.492 274.752H184.548V268.48C182.7 268.76 180.796 268.984 178.892 269.208L177.716 263.776C184.1 263.216 189.812 262.096 194.796 260.416L196.812 265.792C194.684 266.408 192.444 266.968 190.092 267.528V274.752H195.748V280.296H190.092V281.864C191.996 283.6 193.844 285.504 195.748 287.576L192.724 292.168C191.716 290.432 190.876 288.976 190.092 287.744V311.6H184.548V288.808C182.98 293.288 180.964 297.376 178.612 301.072L176.204 294.912C179.564 290.656 182.084 285.784 183.708 280.296H177.492V274.752ZM217.588 310.2H210.7C207.004 310.2 205.212 308.24 205.212 304.376V303.816C202.412 306.392 199.388 308.52 196.252 310.2L192.948 305.328C197.596 302.864 201.684 299.504 205.212 295.36V271H210.756V287.52C214.676 280.8 217.812 272.568 220.108 262.936L225.428 265.288C223.972 270.776 222.348 275.816 220.556 280.352L224.252 279.12C225.988 283.488 227.5 288.192 228.788 293.176L223.804 295.416C222.572 290.432 221.284 286.008 219.828 282.088C217.14 288.248 214.116 293.456 210.756 297.824V303.256C210.756 304.376 211.26 304.936 212.38 304.936H216.468C217.308 304.936 217.924 304.544 218.316 303.816C218.764 303.032 219.1 300.736 219.268 296.816L224.644 298.608C224.196 304.208 223.412 307.568 222.292 308.632C221.284 309.64 219.716 310.2 217.588 310.2ZM199.108 276.712L203.868 277.72C202.86 285.28 201.46 291.776 199.612 297.264L194.796 294.184C196.812 288.696 198.212 282.872 199.108 276.712ZM207.844 259.8C211.54 262.712 214.732 265.568 217.364 268.424L213.332 272.4C211.148 269.656 208.012 266.688 203.98 263.496L207.844 259.8ZM191.38 333.664H188.3V328.568H216.412V333.664H212.716V353.04L216.916 352.536V357.352L212.716 357.912V365.08H207.34V358.584C201.348 359.256 194.908 359.816 187.964 360.264L187.292 355.112L191.38 354.888V333.664ZM207.34 333.664H196.644V337.304H207.34V333.664ZM196.644 354.552C200.452 354.216 203.98 353.936 207.34 353.656V350.184H196.644V354.552ZM196.644 345.592H207.34V341.896H196.644V345.592ZM219.492 367.376H216.412L214.9 361.888L218.316 362.056C219.548 362.056 220.22 361.048 220.22 359.088V323.416H199.388V318.04H225.932V360.712C225.932 365.136 223.748 367.376 219.492 367.376ZM178.948 325.32H184.66V367.88H178.948V325.32ZM189.084 315.408C191.436 318.096 193.564 321.12 195.412 324.368L190.148 327.056C188.244 323.584 186.116 320.504 183.764 317.816L189.084 315.408Z" fill="#D0CED1"/>
<rect x="622.423" y="155" width="98.5768" height="202" rx="49.2884" fill="#817F82"/>
<path d="M693.311 236.032L694.127 240.928L689.711 241.648V254.896H684.671V242.464L670.415 244.72L669.647 239.824L684.671 237.424V210.736H689.711V236.608L693.311 236.032ZM675.359 213.184C678.527 215.488 681.263 217.744 683.471 220L680.015 223.504C678.095 221.344 675.359 219.04 671.807 216.64L675.359 213.184ZM673.919 224.224C677.183 226.624 679.919 228.976 682.223 231.328L678.623 234.928C676.703 232.72 673.919 230.272 670.367 227.68L673.919 224.224ZM650.543 222.976H657.887V217.456C655.823 217.744 653.711 217.984 651.551 218.176L650.543 213.472C656.735 212.992 662.255 212.08 667.151 210.64L668.927 215.344C667.007 215.824 665.039 216.304 662.927 216.688V222.976H668.879V227.824H662.927V229.456C665.423 231.376 667.967 233.488 670.559 235.84L667.727 240.064C665.855 237.712 664.271 235.792 662.927 234.352V254.848H657.887V234.784C656.159 238.816 653.903 242.56 651.215 245.92L649.007 240.304C652.751 236.656 655.487 232.48 657.263 227.824H650.543V222.976ZM655.439 302.464H651.311L650.255 297.808C651.455 298 652.607 298.096 653.759 298.096C654.815 298.096 655.343 297.472 655.343 296.224V286.576C653.711 287.2 652.031 287.776 650.399 288.352L649.103 283.408C651.215 282.928 653.279 282.304 655.343 281.632V271.696H650.063V266.848H655.343V258.64H660.239V266.848H664.751V271.696H660.239V279.664C661.775 278.944 663.311 278.176 664.847 277.312V282.208C663.311 283.024 661.775 283.792 660.239 284.512V297.472C660.239 300.784 658.607 302.464 655.439 302.464ZM665.951 265.024H677.039V258.736H681.935V265.024H693.023V269.776H681.935V276.256H691.199V280.672C689.759 285.616 687.263 289.84 683.807 293.392C686.687 295.456 690.239 297.28 694.367 298.912L691.775 303.088C687.215 301.072 683.375 298.864 680.303 296.464C676.703 299.2 672.335 301.456 667.199 303.232L664.847 299.008C669.503 297.568 673.487 295.696 676.751 293.344C673.103 289.648 670.655 285.52 669.407 280.96H666.911V276.256H677.039V269.776H665.951V265.024ZM674.111 280.96C675.215 284.464 677.231 287.632 680.159 290.416C682.847 287.728 684.911 284.56 686.303 280.96H674.111Z" fill="#D0CED1"/>
<rect x="16" y="155" width="98.5768" height="202" rx="49.2884" fill="#817F82"/>
<path d="M43.8805 215.008H52.5205C51.9445 213.712 51.3205 212.512 50.6005 211.456L55.9765 210.592C56.5525 211.936 57.0805 213.376 57.6565 215.008H66.1045V219.52H43.8805V215.008ZM45.7045 222.256H63.8485V235.264H57.2725V250.048C57.2725 253.024 55.7845 254.56 52.8565 254.56H49.2565L48.2485 250.048C49.3045 250.24 50.3125 250.336 51.2725 250.336C52.1365 250.336 52.5685 249.808 52.5685 248.848V235.264H45.7045V222.256ZM59.2405 231.04V226.48H50.2645V231.04H59.2405ZM46.5205 237.232L50.6005 238.336C49.5925 242.656 48.2965 246.496 46.7605 249.76L42.6805 248.272C44.1205 245.344 45.4165 241.648 46.5205 237.232ZM62.3125 237.088C63.6085 240.304 64.6165 243.232 65.3365 245.92L61.4005 247.456C60.5845 244.288 59.5765 241.216 58.3285 238.192L62.3125 237.088ZM80.0245 211.216C82.2325 213.808 83.9605 216.064 85.1605 217.984L81.5125 220.528C80.2645 218.416 78.5365 216.112 76.3285 213.52L80.0245 211.216ZM69.7525 210.64H74.4085V221.344H86.0725V226H74.3605C73.9765 238.864 71.0965 248.32 65.7685 254.416L62.2165 251.296C66.8245 245.872 69.3205 237.424 69.7045 226H65.5765V221.344H69.7525V210.64ZM82.9045 254.224H79.3525C76.6645 254.224 75.3205 252.736 75.3205 249.856V228.304H79.9765V248.896C79.9765 249.472 80.2165 249.808 80.7445 249.808H82.0885C82.4725 249.808 82.8085 249.472 83.0005 248.8C83.2405 248.08 83.3845 245.92 83.4805 242.272L87.8485 243.664C87.5125 248.848 86.9845 251.872 86.2645 252.832C85.4965 253.744 84.3925 254.224 82.9045 254.224ZM57.5605 258.88H62.6005V296.464H67.8805V258.88H72.9205V296.464H86.7445V301.36H43.8325V296.464H57.5605V258.88ZM81.4165 267.952L85.8325 269.2C84.0085 277.408 81.7045 284.608 78.9205 290.752L74.4085 289.168C77.0965 283.6 79.4005 276.496 81.4165 267.952ZM48.9685 267.808C51.3685 274.192 53.5285 281.536 55.4005 289.792L50.8405 290.896C49.2085 283.408 47.1925 276.208 44.6965 269.248L48.9685 267.808Z" fill="#D0CED1"/>
</svg>
